<?xml version="1.0" standalone="no"?>
<!DOCTYPE svg PUBLIC "-//W3C//DTD SVG 20010904//EN"
 "http://www.w3.org/TR/2001/REC-SVG-20010904/DTD/svg10.dtd">
<svg version="1.0" xmlns="http://www.w3.org/2000/svg"
 width="1024.000000pt" height="1024.000000pt" viewBox="0 0 1024.000000 1024.000000"
 preserveAspectRatio="xMidYMid meet">

<g transform="translate(0.000000,1024.000000) scale(0.100000,-0.100000)"
fill="#000000" stroke="none">
<path d="M5267 8416 c-74 -27 -117 -90 -117 -169 0 -41 -4 -48 -52 -89 -348
-294 -501 -335 -1303 -345 l-431 -6 -28 38 c-34 44 -79 65 -141 65 -80 0 -144
-51 -166 -132 -15 -57 -4 -103 37 -147 44 -50 81 -65 147 -59 62 5 109 34 129
78 l13 29 317 3 c175 2 318 0 318 -4 0 -11 -300 -242 -398 -306 -151 -99 -287
-138 -504 -144 l-127 -3 -23 34 c-63 92 -215 96 -273 7 -76 -115 6 -266 144
-266 39 0 109 39 128 71 17 29 18 29 113 29 250 0 454 55 628 169 48 32 164
118 257 193 242 192 276 209 545 263 302 60 434 114 585 240 168 140 149 128
184 111 38 -20 113 -20 152 -1 29 16 30 15 101 -45 146 -123 291 -209 421
-251 34 -11 136 -36 227 -55 272 -59 300 -71 495 -218 344 -260 379 -283 494
-331 121 -50 204 -66 379 -72 l163 -6 21 -30 c25 -35 90 -66 137 -67 55 0 118
36 146 84 31 53 32 99 3 156 -32 61 -66 83 -136 88 -71 5 -112 -13 -145 -64
l-22 -36 -160 5 c-285 9 -380 51 -737 330 -71 55 -131 104 -134 109 -3 4 138
8 313 8 l318 0 13 -30 c8 -17 33 -41 58 -56 38 -22 54 -26 103 -22 69 5 113
32 141 88 94 184 -156 344 -287 185 l-31 -38 -434 6 c-766 9 -947 54 -1250
307 l-88 73 0 49 c0 127 -127 217 -243 174z"/>
<path d="M6685 8358 c-42 -23 -57 -49 -61 -103 -2 -30 1 -57 6 -60 15 -9 12
-27 -2 -20 -7 4 2 -7 20 -24 77 -73 202 -14 202 96 0 88 -93 151 -165 111z"/>
<path d="M5262 7833 c-40 -19 -62 -59 -62 -110 0 -68 52 -113 129 -113 52 0
107 46 117 96 8 45 -21 101 -66 126 -42 22 -75 23 -118 1z"/>
<path d="M4591 7490 c-70 -15 -171 -50 -236 -83 -85 -42 -171 -102 -410 -286
-115 -88 -240 -177 -277 -196 -147 -78 -442 -170 -626 -196 -124 -17 -341 -7
-417 20 -99 35 -214 121 -287 214 -28 35 -30 40 -15 49 27 15 57 83 57 129 0
56 -33 123 -77 156 -49 38 -133 44 -191 14 -78 -40 -116 -131 -93 -219 13 -48
68 -108 108 -118 15 -4 71 -54 132 -117 200 -206 333 -267 590 -267 142 0 233
13 416 60 82 21 151 37 153 35 2 -1 -39 -38 -90 -81 -292 -245 -423 -306 -663
-307 -133 0 -205 14 -335 63 -67 26 -82 37 -95 64 -40 83 -124 135 -218 136
-127 0 -219 -82 -234 -210 -12 -103 45 -201 141 -246 114 -53 249 -5 307 109
11 20 23 37 28 37 5 0 29 -9 53 -20 150 -66 405 -85 567 -42 103 28 188 63
266 110 68 42 263 195 414 326 213 185 533 446 699 569 161 120 282 170 444
183 169 14 388 -58 527 -173 33 -28 33 -29 21 -70 l-12 -41 -82 -6 c-117 -10
-310 -51 -434 -92 -141 -47 -361 -155 -492 -242 -130 -87 -204 -150 -544 -460
-459 -419 -518 -468 -671 -544 -175 -87 -310 -115 -615 -123 l-225 -6 -20 32
c-63 104 -204 107 -278 7 -49 -66 -25 -183 46 -227 79 -48 149 -40 213 26 l44
45 233 -5 c202 -3 242 -7 307 -26 102 -30 242 -99 320 -159 66 -50 242 -205
360 -316 312 -295 679 -617 782 -686 112 -76 363 -198 498 -244 220 -74 414
-106 645 -106 359 0 702 93 1025 276 155 89 220 139 456 355 791 725 824 753
988 829 139 66 283 90 525 90 l130 0 48 -49 c34 -35 60 -51 86 -56 110 -21
207 53 207 158 0 57 -17 94 -64 134 -71 63 -181 45 -235 -39 l-24 -38 -166 0
c-346 1 -580 59 -786 195 -82 55 -192 149 -585 501 -310 278 -401 355 -500
423 -297 203 -607 318 -937 346 -86 8 -96 13 -107 57 -5 22 0 32 37 63 65 56
152 104 252 137 79 27 103 31 195 30 186 -1 302 -38 472 -153 121 -82 376
-283 612 -483 284 -242 485 -403 546 -439 160 -94 291 -130 480 -131 141 0
239 17 360 63 55 21 70 20 70 -5 0 -8 21 -37 46 -64 100 -107 251 -107 347 0
73 82 87 179 39 271 -51 98 -144 145 -253 128 -69 -11 -123 -48 -157 -109 -24
-44 -36 -53 -102 -84 -121 -55 -188 -69 -335 -69 -255 -1 -397 63 -673 303
-46 40 -81 74 -79 77 3 2 58 -10 124 -26 175 -44 293 -61 433 -61 251 0 378
56 555 242 52 55 95 104 95 109 0 5 24 20 53 33 60 27 90 56 112 108 21 51 19
84 -9 144 -30 66 -73 96 -142 102 -68 6 -95 -1 -135 -35 -81 -69 -90 -202 -18
-279 l20 -21 -100 -95 c-163 -157 -240 -184 -501 -175 -134 4 -174 10 -300 41
-354 89 -443 133 -782 388 -281 213 -362 263 -513 314 -115 39 -310 46 -440
15 -111 -27 -209 -74 -302 -145 l-72 -56 -68 52 c-78 59 -201 120 -288 144
-70 19 -308 28 -374 14z m57 -937 c-71 -75 -111 -136 -158 -236 -66 -141 -74
-187 -74 -402 0 -143 4 -203 15 -242 17 -57 15 -61 -17 -38 -35 24 -169 65
-213 65 -36 0 -42 3 -48 28 -5 15 -8 97 -8 182 0 134 3 165 23 230 51 163 117
248 267 346 83 54 223 122 254 123 8 1 -11 -25 -41 -56z m797 47 c88 -23 124
-41 118 -57 -5 -12 -2 -14 8 -9 8 4 5 1 -5 -8 -15 -12 -19 -31 -22 -98 -1 -46
-7 -103 -13 -128 -6 -25 -13 -79 -15 -120 -5 -90 -15 -151 -28 -167 -6 -7 -12
-31 -14 -54 -2 -23 -8 -48 -13 -57 -6 -10 -6 -24 0 -35 7 -12 6 -29 -2 -52
-10 -27 -10 -40 0 -62 9 -19 9 -29 2 -31 -6 -2 -8 -8 -5 -14 3 -5 15 -2 27 9
12 9 -3 -9 -33 -41 -59 -62 -144 -124 -200 -146 -19 -7 -39 -17 -44 -22 -6 -4
-60 -8 -122 -8 -132 0 -211 20 -296 76 -66 44 -80 66 -107 169 -63 239 9 513
179 684 65 64 199 138 300 165 65 17 228 20 285 6z m576 -11 c27 -12 46 -26
43 -31 -3 -5 -1 -15 5 -22 6 -7 9 -21 5 -30 -5 -12 -2 -15 10 -10 9 4 24 0 34
-8 9 -9 23 -17 30 -19 9 -3 3 -14 -16 -32 l-30 -29 -48 64 c-27 35 -64 80 -83
101 -40 44 -26 48 50 16z m-1950 -471 c-18 -57 -39 -199 -44 -303 -3 -61 -2
-84 2 -60 5 22 9 30 10 19 0 -12 4 -36 7 -53 5 -24 3 -31 -10 -31 -9 0 -16 -8
-16 -20 0 -14 6 -19 21 -17 18 2 25 -9 44 -65 13 -38 21 -68 19 -68 -2 0 7
-15 19 -33 12 -18 33 -57 46 -87 13 -30 27 -62 32 -70 64 -115 91 -156 142
-220 88 -109 252 -269 327 -318 130 -85 315 -163 450 -191 l55 -11 -4 -90 c-2
-66 1 -95 10 -107 12 -14 12 -17 0 -21 -11 -4 -9 -9 7 -21 22 -16 21 -16 -11
-18 -127 -10 -383 86 -574 215 -152 103 -271 227 -388 404 -39 58 -77 90 -91
75 -9 -9 36 -120 76 -191 23 -39 65 -102 93 -140 85 -112 86 -114 39 -77 -48
37 -89 75 -503 461 -156 146 -318 296 -359 333 -118 108 -129 77 108 290 114
102 272 246 351 321 79 75 146 134 149 132 2 -3 -1 -20 -7 -38z m2618 -66
c135 -125 509 -464 557 -505 l32 -27 -61 -58 c-34 -32 -176 -166 -315 -298
-615 -582 -680 -640 -577 -509 202 254 299 534 319 920 9 170 -22 410 -70 548
-7 20 -11 37 -7 37 3 0 58 -49 122 -108z m-739 60 c0 -5 -10 -13 -22 -19 -13
-6 -63 -43 -113 -84 -49 -40 -79 -60 -65 -45 21 23 189 156 197 156 2 0 3 -4
3 -8z m20 -90 c0 -4 -10 -13 -22 -21 -23 -14 -23 -14 -4 8 20 22 26 25 26 13z
m-70 -46 c0 -2 -17 -15 -37 -27 -20 -13 -64 -45 -97 -73 -34 -27 -50 -37 -36
-22 21 24 156 126 167 126 1 0 3 -2 3 -4z m17 -89 c-10 -7 -58 -38 -107 -69
-48 -32 -115 -81 -147 -110 -41 -37 -48 -41 -23 -14 47 51 134 117 217 166 63
37 101 54 60 27z m53 -42 c0 -2 -13 -11 -30 -20 -38 -19 -40 -11 -2 9 31 17
32 18 32 11z m-91 -49 c-2 -2 -44 -31 -94 -63 -49 -33 -130 -93 -180 -135 -49
-41 -110 -85 -134 -98 -58 -29 -262 -80 -315 -79 -35 1 -32 3 21 10 104 13
255 58 312 92 29 18 81 56 114 86 54 48 260 191 275 191 3 0 3 -2 1 -4z m-219
-20 c0 -2 -8 -10 -17 -17 -16 -13 -17 -12 -4 4 13 16 21 21 21 13z m295 -16
c-4 -6 -42 -28 -85 -50 -82 -41 -165 -105 -266 -205 -34 -33 -87 -73 -119 -89
-55 -26 -216 -67 -260 -65 -11 1 30 11 91 24 149 30 211 63 298 154 80 83 157
140 266 200 83 45 84 45 75 31z m-325 -24 c0 -2 -8 -10 -17 -17 -16 -13 -17
-12 -4 4 13 16 21 21 21 13z m-90 -49 c0 -2 -10 -12 -22 -23 l-23 -19 19 23
c18 21 26 27 26 19z m-5 -60 c-30 -35 -75 -74 -98 -86 -24 -13 -32 -15 -17 -4
14 9 57 48 95 85 39 37 71 68 73 68 2 0 -22 -28 -53 -63z m1093 46 c-10 -2
-26 -2 -35 0 -10 3 -2 5 17 5 19 0 27 -2 18 -5z m-2353 -18 c33 -9 88 -29 123
-45 53 -25 65 -35 82 -72 10 -24 35 -71 55 -105 28 -50 32 -62 18 -57 -14 4
-14 3 2 -7 27 -16 75 -61 75 -70 0 -4 -14 -4 -30 1 -18 5 -28 5 -25 0 3 -5 21
-12 40 -16 18 -3 44 -17 57 -31 l23 -25 -45 6 c-39 5 -41 4 -15 -4 17 -6 37
-9 47 -6 9 2 31 -8 50 -23 64 -52 194 -137 248 -163 59 -28 199 -67 247 -69
23 -1 24 -2 8 -7 -15 -5 -20 -16 -20 -44 -1 -21 -2 -77 -3 -124 l-2 -86 -56 7
c-168 21 -389 123 -519 240 -91 83 -198 192 -210 215 -7 14 -25 36 -39 49 -14
14 -26 30 -26 37 0 6 -7 17 -15 24 -8 7 -15 19 -15 27 0 7 -9 26 -20 41 -21
28 -140 294 -140 312 0 14 37 12 105 -5z m1645 10 c0 -2 -23 -16 -50 -30 -28
-14 -93 -54 -145 -90 -52 -35 -95 -62 -95 -60 0 10 156 118 216 150 67 36 74
39 74 30z m-430 -28 c0 -2 -15 -16 -32 -33 l-33 -29 29 33 c28 30 36 37 36 29z
m130 -70 c0 -13 -139 -112 -177 -127 -59 -22 -289 -70 -337 -70 -39 0 -149 33
-186 56 -27 16 -24 16 65 -16 92 -33 129 -34 285 -1 174 36 205 48 284 112 59
48 66 52 66 46z m-255 -27 c-3 -5 -12 -10 -18 -10 -7 0 -6 4 3 10 19 12 23 12
15 0z m-520 -30 c3 -6 -1 -7 -9 -4 -18 7 -21 14 -7 14 6 0 13 -4 16 -10z m56
-25 c19 -8 27 -14 19 -14 -14 0 -72 28 -59 29 4 0 22 -7 40 -15z m396 -1 c-3
-3 -12 -4 -19 -1 -8 3 -5 6 6 6 11 1 17 -2 13 -5z m-62 -15 c-42 -13 -214 -25
-250 -18 -20 4 -2 7 50 9 44 1 100 5 125 9 25 5 59 9 75 9 l30 0 -30 -9z m400
-28 c-6 -5 -46 -27 -90 -49 -91 -46 -170 -68 -270 -76 -62 -5 -59 -4 35 13
110 20 141 30 255 86 76 37 84 40 70 26z m112 -29 c-37 -39 -171 -118 -241
-143 -70 -24 -207 -42 -238 -30 -15 5 10 10 77 13 70 4 118 12 160 28 65 25
170 86 225 131 44 37 51 37 17 1z m-644 11 c-7 -2 -19 -2 -25 0 -7 3 -2 5 12
5 14 0 19 -2 13 -5z m578 -6 c-15 -19 -190 -106 -226 -112 -28 -5 -28 -4 5 9
51 20 203 96 215 107 14 14 19 11 6 -4z m-651 -67 c19 -5 66 -11 103 -15 38
-4 66 -9 64 -12 -10 -10 -187 17 -214 32 -15 9 -19 13 -8 9 11 -3 36 -10 55
-14z m368 -62 c-29 -8 -264 -8 -302 1 -17 3 50 6 147 6 98 0 167 -3 155 -7z
m-165 -45 c-7 -2 -19 -2 -25 0 -7 3 -2 5 12 5 14 0 19 -2 13 -5z m640 -110
c-7 -2 -19 -2 -25 0 -7 3 -2 5 12 5 14 0 19 -2 13 -5z m-44 -49 c10 -9 -45 -3
-59 6 -11 7 -5 8 20 4 19 -4 37 -8 39 -10z m104 -11 c-7 -2 -21 -2 -30 0 -10
3 -4 5 12 5 17 0 24 -2 18 -5z m-213 -23 c8 -5 11 -10 5 -10 -5 0 -17 5 -25
10 -8 5 -10 10 -5 10 6 0 17 -5 25 -10z m87 -26 c-3 -3 -12 -4 -19 -1 -8 3 -5
6 6 6 11 1 17 -2 13 -5z m66 -11 c-7 -2 -19 -2 -25 0 -7 3 -2 5 12 5 14 0 19
-2 13 -5z"/>
<path d="M4648 5183 c12 -2 30 -2 40 0 9 3 -1 5 -23 4 -22 0 -30 -2 -17 -4z"/>
<path d="M4718 5173 c7 -3 16 -2 19 1 4 3 -2 6 -13 5 -11 0 -14 -3 -6 -6z"/>
<path d="M4668 5143 c12 -2 32 -2 45 0 12 2 2 4 -23 4 -25 0 -35 -2 -22 -4z"/>
<path d="M4638 5103 c34 -2 90 -2 125 0 34 2 6 3 -63 3 -69 0 -97 -1 -62 -3z"/>
<path d="M4648 5063 c28 -2 76 -2 105 0 28 2 5 3 -53 3 -58 0 -81 -1 -52 -3z"/>
<path d="M4648 5023 c18 -2 45 -2 60 0 15 2 0 4 -33 4 -33 0 -45 -2 -27 -4z"/>
<path d="M4808 4983 c7 -3 16 -2 19 1 4 3 -2 6 -13 5 -11 0 -14 -3 -6 -6z"/>
<path d="M4964 4958 l-19 -23 23 19 c21 18 27 26 19 26 -2 0 -12 -10 -23 -22z"/>
<path d="M2505 5114 c-75 -39 -125 -120 -125 -204 0 -176 185 -284 336 -195
51 30 82 70 100 133 29 95 -23 213 -116 260 -54 27 -149 30 -195 6z"/>
<path d="M7965 5115 c-81 -44 -124 -116 -125 -209 0 -173 185 -279 335 -192
139 82 142 285 7 380 -37 26 -54 31 -115 34 -52 2 -80 -2 -102 -13z"/>
<path d="M3130 4640 c-28 -28 -34 -63 -16 -99 21 -39 50 -54 91 -47 33 7 57
27 69 60 9 26 -11 84 -34 96 -31 17 -88 12 -110 -10z"/>
<path d="M7391 4636 c-46 -48 -20 -130 44 -142 42 -8 81 14 96 53 31 82 -80
153 -140 89z"/>
<path d="M7135 4341 c-85 -38 -100 -145 -31 -208 29 -27 44 -33 78 -33 54 0
100 27 121 73 22 46 21 75 -3 114 -38 63 -102 84 -165 54z"/>
<path d="M3388 4327 c-14 -12 -31 -32 -37 -44 -15 -29 -13 -93 3 -121 44 -80
180 -82 221 -2 32 62 11 146 -45 175 -44 23 -110 19 -142 -8z"/>
<path d="M2647 3562 c-15 -17 -17 -66 -17 -498 0 -360 3 -483 12 -492 16 -16
210 -16 226 0 9 9 12 79 12 254 l0 243 58 -61 c31 -33 151 -151 265 -261 189
-182 212 -201 243 -201 22 0 42 8 57 22 l22 23 -1 474 c0 373 -3 477 -13 489
-11 13 -35 16 -117 16 -56 0 -105 -4 -108 -9 -3 -4 -8 -122 -11 -261 -3 -139
-6 -255 -8 -256 -1 -2 -127 118 -279 266 -289 281 -304 293 -341 252z"/>
<path d="M5108 3561 c-161 -52 -279 -170 -334 -336 -23 -72 -26 -90 -22 -195
3 -87 10 -128 26 -170 48 -121 173 -246 293 -291 82 -31 79 -35 79 102 l0 121
-60 64 c-85 91 -107 173 -75 280 55 188 295 245 436 104 103 -103 103 -256 0
-379 -33 -41 -32 -41 -140 57 -44 39 -82 72 -85 72 -3 0 -6 -123 -6 -272 0
-266 1 -274 24 -323 47 -100 142 -159 256 -159 112 0 215 73 227 162 7 49 -16
95 -55 111 -26 11 -36 9 -81 -13 -49 -25 -105 -33 -127 -18 -13 9 -44 54 -44
64 0 4 31 23 68 42 128 64 232 185 272 315 24 75 27 220 6 296 -24 91 -68 167
-136 235 -73 73 -138 112 -225 135 -81 21 -225 19 -297 -4z"/>
<path d="M6348 3570 c-234 -3 -430 -9 -435 -13 -14 -14 -16 -206 -3 -222 10
-12 43 -15 166 -15 l154 0 2 -377 3 -378 111 -3 c84 -2 114 1 122 11 8 10 13
124 14 378 l3 364 158 5 c125 4 160 8 167 20 13 20 13 186 0 209 -5 10 -15 20
-22 22 -7 2 -205 2 -440 -1z"/>
<path d="M7273 3570 c-31 -13 -43 -34 -123 -220 -40 -91 -132 -301 -206 -467
-74 -167 -134 -308 -134 -313 0 -7 43 -10 123 -8 l122 3 40 77 40 78 192 0
193 0 40 -80 40 -80 130 0 c72 0 130 4 130 9 0 5 -30 76 -66 158 -133 296
-227 511 -284 644 -32 75 -65 148 -75 162 -27 41 -106 59 -162 37z m114 -510
l52 -120 -106 0 c-96 0 -105 2 -99 18 25 67 92 222 96 222 3 0 28 -54 57 -120z"/>
<path d="M3721 3556 c-9 -10 -11 -107 -9 -363 l3 -348 32 -66 c51 -102 140
-182 247 -219 71 -25 208 -28 282 -6 121 37 231 142 277 262 21 56 22 78 25
386 2 224 0 333 -8 348 -10 18 -20 20 -118 20 -71 0 -112 -4 -120 -12 -9 -9
-12 -93 -12 -318 0 -275 -2 -309 -19 -346 -22 -49 -60 -80 -113 -95 -74 -20
-167 21 -206 89 -21 39 -22 47 -22 349 0 227 -3 312 -12 321 -18 18 -212 16
-227 -2z"/>
</g>
</svg>
